<svg width="846" height="25" viewBox="0 0 846 25" fill="none" xmlns="http://www.w3.org/2000/svg">
<path d="M0 15.2063L26.4387 14.8508L52.8847 14.5833L105.755 14.0624L211.514 13.4112C246.766 13.1437 281.998 13.1261 317.272 12.9959L423.009 12.8691L528.746 12.9853L581.634 13.1507L608.059 13.2422L634.505 13.4006L740.263 14.0518L793.13 14.5833L819.576 14.8508L846 15.2063L819.576 15.5583L793.13 15.8258L740.263 16.3503L634.505 17.012L608.059 17.1704L581.634 17.2584L528.746 17.4274L423.009 17.5471L317.272 17.4168C281.998 17.2795 246.766 17.2584 211.514 17.0015L105.755 16.3503L52.8847 15.8188L26.4387 15.5513L0 15.2063Z" fill="#F58220"/>
<path d="M452.248 15.903C459.604 18.4091 467.149 20.2324 474.795 21.2004C482.422 22.1648 490.13 22.3232 497.779 21.6826C505.385 20.9927 512.908 19.4932 520.308 17.3919C527.687 15.3503 535.003 12.8547 542.316 10.3416C549.673 7.88468 557.095 5.41725 564.701 3.50596C572.307 1.64042 580.119 0.211355 588.058 0.0353608C595.953 -0.21103 603.954 0.823813 611.437 3.34052C618.877 5.87484 625.839 9.97901 630.978 15.7094C625.239 10.5809 618.211 7.07863 610.855 5.09694C603.498 3.07653 595.787 2.47464 588.181 2.95686C580.575 3.47076 573.03 4.91039 565.634 6.94136C558.216 8.91249 550.921 11.3694 543.582 13.8826C536.226 16.3183 528.848 18.835 521.263 20.8062C513.679 22.7597 505.885 24.2275 497.989 24.5935C490.094 24.9983 482.198 24.4246 474.487 23.0061C466.798 21.5172 459.275 19.18 452.251 15.903H452.248Z" fill="#F58220"/>
<path d="M393.742 15.9029C386.715 19.1799 379.213 21.5171 371.524 23.006C363.813 24.4245 355.918 24.9982 348.022 24.5935C340.127 24.2274 332.332 22.7596 324.748 20.8061C317.164 18.8349 309.764 16.3182 302.429 13.8825C295.094 11.3693 287.777 8.9124 280.377 6.94127C272.977 4.9103 265.436 3.46715 257.809 2.95677C250.224 2.47455 242.513 3.07645 235.157 5.09686C227.778 7.07855 220.773 10.5808 215.033 15.7093C220.172 9.97893 227.135 5.87475 234.574 3.34044C242.057 0.827246 250.036 -0.211117 257.953 0.035274C265.892 0.211268 273.704 1.64386 281.31 3.50587C288.917 5.41717 296.335 7.8846 303.673 10.3415C311.008 12.8582 318.303 15.3503 325.703 17.3918C333.103 19.4932 340.626 20.9926 348.232 21.6825C355.86 22.3231 363.589 22.1647 371.217 21.2003C378.866 20.2323 386.407 18.409 393.746 15.9029H393.742Z" fill="#F58220"/>
</svg>
