<svg width="745" height="258" viewBox="0 0 745 258" fill="none" xmlns="http://www.w3.org/2000/svg">
<g filter="url(#filter0_d_89_69)">
<path d="M584.224 232.602H582.478C577.588 232.602 573.508 228.686 573.508 223.815V218.712C566.356 215.988 559.338 212.793 552.546 209.132V223.815C552.546 228.686 548.494 232.602 543.598 232.602H541.83L541.808 234H584.252L584.23 232.602H584.224ZM636.953 84.0712H635.722C635.4 88.0374 629.978 99.8917 629.003 101.989L597.402 173.475C594.486 178.9 589.768 181.18 585.899 181.18H584.668V182.55H613.967V181.208H612.781C609.25 181.208 605.308 178.085 607.542 172.615L614.539 155.702H646.616L653.335 172.615C655.431 178.085 651.583 181.185 648.074 181.185H646.865V182.556H690.402V181.185H689.265C685.257 181.185 680.561 178.861 677.601 173.253L636.958 84.0767L636.953 84.0712ZM616.95 149.949L630.938 116.35L644.309 149.949H616.95ZM490.249 208.921H476.694V205.898V202.853L493.503 179.516H495.726H497.95V202.953H501.42V208.921H497.95V216.732H490.249V208.921ZM490.249 202.953V187.021L478.917 202.847L478.845 202.958H490.249V202.953ZM472.248 189.606C472.248 192.463 470.912 195.475 468.229 198.631C466.31 200.911 462.635 204.533 457.202 209.52H465.922C468.417 209.52 470.08 209.276 470.912 208.788C471.743 208.3 472.519 207.113 473.224 205.232H474.471L473.285 210.968L472.082 216.737H449.468V216.133V215.489C455.2 209.576 459.192 204.938 461.454 201.56C463.694 198.204 464.813 195.203 464.813 192.552C464.813 190.488 464.215 188.818 463.023 187.554C461.831 186.278 460.251 185.645 458.288 185.645C456.897 185.645 455.611 186.078 454.43 186.949C453.254 187.82 452.323 189.012 451.635 190.532H450.116C451.508 186.816 453.199 184.031 455.189 182.184C457.168 180.331 459.464 179.405 462.058 179.405C465.041 179.405 467.48 180.353 469.387 182.262C471.294 184.17 472.242 186.622 472.242 189.606H472.248ZM434.993 217.386C431.478 217.386 428.556 215.611 426.233 212.067C423.899 208.511 422.735 204.062 422.735 198.72C422.735 193.178 423.899 188.563 426.233 184.902C428.556 181.241 431.478 179.405 434.993 179.405C438.524 179.405 441.446 181.241 443.769 184.902C446.091 188.563 447.25 193.178 447.25 198.72C447.25 204.068 446.091 208.511 443.769 212.067C441.446 215.611 438.524 217.386 434.993 217.386ZM434.993 215.866C436.573 215.866 437.598 214.801 438.064 212.671C438.524 210.535 438.751 205.881 438.735 198.692C438.751 191.248 438.524 186.428 438.064 184.225C437.593 182.029 436.573 180.925 434.993 180.925C433.446 180.925 432.442 182.029 431.977 184.225C431.517 186.433 431.273 191.254 431.256 198.692C431.273 205.881 431.517 210.541 431.977 212.671C432.448 214.796 433.451 215.866 434.993 215.866ZM418.023 189.606C418.023 192.463 416.686 195.475 414.003 198.631C412.085 200.911 408.409 204.533 402.976 209.52H411.697C414.192 209.52 415.855 209.276 416.687 208.788C417.518 208.3 418.294 207.113 418.998 205.232H420.246L419.059 210.968L417.856 216.737H395.243V216.133V215.489C400.975 209.576 404.967 204.938 407.229 201.56C409.468 198.204 410.588 195.203 410.588 192.552C410.588 190.488 409.989 188.818 408.797 187.554C407.606 186.278 406.026 185.645 404.063 185.645C402.671 185.645 401.385 186.078 400.204 186.949C399.029 187.82 398.098 189.012 397.41 190.532H395.891C397.283 186.816 398.974 184.031 400.964 182.184C402.943 180.331 405.238 179.405 407.833 179.405C410.815 179.405 413.255 180.353 415.162 182.262C417.069 184.17 418.017 186.622 418.017 189.606H418.023ZM347.47 67.5184C320.477 79.0343 307.854 102.471 314.905 131.045C323.033 163.973 351.118 178.695 387.126 169.797C423.134 160.899 441.163 134.778 433.036 101.85C425.834 72.6884 402.965 57.8109 372.812 60.9728C374.641 62.4206 376.565 63.8129 378.317 65.3162C378.722 65.6712 379.176 66.0429 379.631 66.4145C380.49 67.1246 381.344 67.829 382.148 68.6167C383.395 69.8149 384.437 70.8467 385.463 71.884C396.207 77.6642 404.595 90.0621 408.969 107.796C416.154 136.913 407.095 158.331 385.613 163.64C364.158 168.943 346.168 154.21 338.983 125.092C332.796 100.036 338.65 80.6874 354.073 72.3999C351.872 70.7746 349.666 69.1548 347.476 67.5184H347.47ZM439.638 68.4393L439.661 69.8371H441.429C446.319 69.815 450.283 73.7534 450.377 78.6238V156.19C450.261 161.038 446.302 164.932 441.429 164.932H439.661L439.638 166.33H482.149L482.127 164.932H480.381C475.463 164.932 471.483 161.016 471.389 156.146V74.5467C473.157 74.5911 478.285 74.4524 482.011 74.591C491.186 74.824 497.922 80.815 498.482 94.1948C498.598 97.0127 498.293 99.2538 497.972 100.951C495.477 113.21 487.837 117.032 480.314 117.127H476.051V118.458C479.688 119.085 482.898 122.003 485.509 127.872C487.045 132.065 493.437 145.939 497.157 151.83C552.834 240.268 707.022 247.812 722.823 170.391C730.945 130.601 715.799 86.9612 686.493 99.986C681.254 102.316 677.24 108.423 678.133 114.27C678.549 117.005 680.14 119.562 682.13 121.442C684.115 123.317 686.554 124.632 689.315 124.821C694.604 125.176 700.032 121.232 700.381 115.746C700.553 112.989 699.272 110.243 696.794 108.911C695.657 108.301 694.327 108.074 693.052 108.179C691.627 108.296 690.396 108.873 689.481 110.004C687.696 112.206 688.184 115.44 690.49 117.071C692.519 118.502 695.33 117.404 696.439 115.352C696.966 114.381 697.06 113.244 696.572 112.24C696.445 111.99 696.045 112.14 696.162 112.401C697.127 114.547 694.632 117.792 692.442 116.001C691.738 115.424 691.1 114.83 690.845 113.92C690.568 112.939 690.795 111.951 691.377 111.125C691.993 110.259 692.974 109.372 694.033 109.155C695.303 108.9 696.605 109.411 697.614 110.171C700.076 112.029 700.486 115.435 699.477 118.197C697.714 123.023 691.793 125.586 687.014 123.9C684.619 123.057 682.618 121.365 681.376 119.151C680.179 117.021 679.996 114.398 680.24 112.012C680.755 106.87 684.436 102.798 689.226 101.129C694.598 99.2593 700.331 100.79 704.722 104.196C725.134 120.039 721.409 170.141 705.065 188.802C669.168 229.795 598.766 225.38 544.136 173.114C532.649 162.12 518.59 143.836 512.225 133.763C505.866 123.689 503.865 123.323 497.972 121.387C513.833 119.8 520.846 106.565 520.846 94.7938C520.846 75.3344 504.563 68.4337 487.605 68.4337H439.644L439.638 68.4393ZM327.801 200.04H326.032C321.142 200.04 317.09 196.124 317.09 191.254V153.516C312.266 147.403 308.641 139.881 306.462 131.045C301.744 111.929 305.835 95.11 317.145 82.6233H285.384L285.406 84.0212H287.152C291.998 84.0212 296.123 87.8654 296.123 92.6471C296.123 104.723 296.123 116.794 296.123 128.87C283.649 128.87 271.18 128.87 258.707 128.87V65.0166C258.707 60.1906 262.803 56.302 267.677 56.302H269.423L269.445 54.9041H227.001L227.023 56.302H228.791C233.659 56.302 237.734 60.1906 237.734 65.0444V170.357C237.734 175.228 233.681 179.144 228.791 179.144H227.023L227.001 180.542H269.445L269.423 179.144H267.677C262.787 179.144 258.707 175.228 258.707 170.357C258.707 164.511 258.707 158.658 258.707 152.812C271.175 152.812 283.649 152.812 296.123 152.812V191.353C296.123 196.179 292.02 200.046 287.152 200.046H285.406L285.384 201.444H327.828L327.806 200.046L327.801 200.04ZM133.513 89.7015L133.541 91.3102H135.554C140.926 91.3102 145.838 95.343 145.838 100.58V201.122C145.838 206.736 141.164 211.251 135.526 211.251H133.486L133.458 212.865H182.4L182.372 211.251H180.332C174.721 211.251 170.02 206.741 170.02 201.122V96.4912H180.759C193.671 96.4912 201.055 105.461 201.51 119.19C201.643 122.252 201.266 126.041 200.517 128.887C194.907 149.195 175.414 147.154 175.525 147.259V148.79C198.505 163.889 228.281 148.357 227.283 120.56C226.718 102.965 214.771 89.696 187.229 89.696H133.508L133.513 89.7015ZM107.534 176.886C107.512 196.113 95.4708 207.329 79.022 207.329C62.2294 207.329 50.942 194.998 50.9531 175.072C50.9641 157.266 50.8366 139.46 50.9531 121.653C50.9752 118.014 54.1186 114.986 58.3154 114.986C59.0749 114.986 59.9509 115.385 60.5995 114.986C60.9987 114.741 61.0652 113.604 60.5995 113.588C47.1832 113.122 33.7391 113.122 20.3228 113.588C19.8571 113.604 19.9292 114.741 20.3228 114.986C20.9604 115.379 21.8307 114.986 22.5847 114.986C26.6373 114.986 29.9803 117.876 29.9914 121.908C30.0469 140.037 30.1078 158.159 29.9914 176.287C29.8473 198.731 47.0169 213.442 75.0636 213.442C101.946 213.442 117.308 199.552 117.458 176.032C117.563 159.402 117.458 134.101 117.458 117.465C117.458 -49.1663 382.613 45.1411 397.05 112.65C398.037 117.265 398.247 122.43 396.368 126.862C394.417 131.455 390.868 135.199 386.372 137.374C377.391 141.706 365.255 137.984 360.765 128.926C358.192 123.739 358.264 116.988 362.672 112.817C364.474 111.108 366.924 109.832 369.458 110.06C371.587 110.248 373.699 111.768 375.085 113.333C376.404 114.819 377.058 116.705 376.731 118.685C376.426 120.516 375.312 121.82 374.059 123.096C370.162 127.078 364.579 121.27 365.998 116.86C366.17 116.322 365.35 116.112 365.161 116.633C364.424 118.697 364.856 120.91 366.093 122.691C368.715 126.463 374.442 127.999 378.101 124.76C382.264 121.071 382.514 114.63 378.544 110.72C376.51 108.712 373.982 107.852 371.165 107.93C368.643 108.002 366.093 108.734 363.997 110.171C359.44 113.31 357.522 118.968 358.459 124.316C360.327 134.978 371.803 141.512 382.07 139.67C387.426 138.705 392.077 136.32 395.553 132.221C399.04 128.11 401.43 122.053 401.657 116.611C402.865 87.3329 360.465 57.4614 337.037 45.1745C318.126 35.2561 296.688 27.4568 274.462 22.1371C245.523 15.2086 214.394 13.783 185.177 19.7351C131.928 30.5854 107.435 62.2819 107.529 117.537C107.557 134.434 107.551 159.995 107.529 176.897L107.534 176.886ZM573.513 187.848V60.3015C573.513 55.4755 577.616 51.587 582.483 51.587H584.23L584.252 50.1891H541.808L541.83 51.587H543.598C548.466 51.587 552.546 55.4811 552.546 60.3293V172.654C559.371 178.423 566.389 183.493 573.508 187.853L573.513 187.848Z" fill="#FFAD0E"/>
</g>
<defs>
<filter id="filter0_d_89_69" x="0" y="0" width="745" height="258" filterUnits="userSpaceOnUse" color-interpolation-filters="sRGB">
<feFlood flood-opacity="0" result="BackgroundImageFix"/>
<feColorMatrix in="SourceAlpha" type="matrix" values="0 0 0 0 0 0 0 0 0 0 0 0 0 0 0 0 0 0 127 0" result="hardAlpha"/>
<feOffset dy="4"/>
<feGaussianBlur stdDeviation="10"/>
<feComposite in2="hardAlpha" operator="out"/>
<feColorMatrix type="matrix" values="0 0 0 0 0 0 0 0 0 0 0 0 0 0 0 0 0 0 1 0"/>
<feBlend mode="normal" in2="BackgroundImageFix" result="effect1_dropShadow_89_69"/>
<feBlend mode="normal" in="SourceGraphic" in2="effect1_dropShadow_89_69" result="shape"/>
</filter>
</defs>
</svg>
