<?xml version="1.0" encoding="UTF-8"?>
<!DOCTYPE svg PUBLIC "-//W3C//DTD SVG 1.1//EN" "http://www.w3.org/Graphics/SVG/1.1/DTD/svg11.dtd">
<!-- Creator: CorelDRAW 2018 (64-Bit Evaluation Version) -->
<svg xmlns="http://www.w3.org/2000/svg" xml:space="preserve" width="142.863mm" height="44.1518mm" version="1.1" style="shape-rendering:geometricPrecision; text-rendering:geometricPrecision; image-rendering:optimizeQuality; fill-rule:evenodd; clip-rule:evenodd"
viewBox="0 0 4479.45 1384.37"
 xmlns:xlink="http://www.w3.org/1999/xlink">
 <defs>
  <style type="text/css">
   <![CDATA[
    .fil0 {fill:#FFAD0E;fill-rule:nonzero}
   ]]>
  </style>
 </defs>
 <g id="Layer_x0020_1">
  <metadata id="CorelCorpID_0Corel-Layer"/>
  <g id="_1634330503680">
   <path class="fil0" d="M2987.89 1225.13l-86.13 0 0 -19.18 0 -19.35 106.81 -148.21 14.13 0 14.13 0 0 148.84 0 0 22.05 0 0 37.9 -22.05 0 0 0 0 49.61 -48.93 0 0 -49.61zm0 -37.9l0 0 0 -101.18 0 0 0 0 -72.01 100.49 -0.46 0.69 0 0 72.47 0zm-114.39 -84.76c0,18.15 -8.5,37.27 -25.55,57.31 -12.17,14.47 -35.54,37.5 -70.06,69.14l0 0 55.41 0c15.85,0 26.42,-1.55 31.7,-4.65 5.28,-3.1 10.22,-10.63 14.7,-22.57l7.92 0 -7.52 36.41 -7.64 36.64 0 0 -143.67 0 0 -3.85 0 -4.08c36.41,-37.55 61.79,-67.01 76.14,-88.43 14.24,-21.3 21.36,-40.37 21.36,-57.19 0,-13.09 -3.79,-23.72 -11.37,-31.76 -7.58,-8.1 -17.63,-12.12 -30.09,-12.12 -8.85,0 -17,2.76 -24.52,8.27 -7.47,5.51 -13.38,13.09 -17.74,22.74l-9.65 0c8.85,-23.6 19.58,-41.28 32.22,-53 12.57,-11.77 27.16,-17.63 43.64,-17.63 18.95,0 34.46,6.03 46.57,18.15 12.12,12.12 18.15,27.68 18.15,46.62zm-236.7 176.41c-22.34,0 -40.89,-11.26 -55.64,-33.77 -14.82,-22.57 -22.22,-50.82 -22.22,-84.76 0,-35.2 7.41,-64.49 22.22,-87.74 14.76,-23.26 33.31,-34.91 55.64,-34.91 22.45,0 41,11.66 55.76,34.91 14.76,23.26 22.11,52.54 22.11,87.74 0,33.94 -7.35,62.19 -22.11,84.76 -14.76,22.51 -33.31,33.77 -55.76,33.77zm0 -9.65c10.05,0 16.54,-6.78 19.52,-20.27 2.93,-13.55 4.36,-43.12 4.25,-88.77 0.12,-47.26 -1.32,-77.87 -4.25,-91.88 -2.99,-13.96 -9.48,-20.96 -19.52,-20.96 -9.82,0 -16.19,7 -19.18,20.96 -2.93,14.01 -4.48,44.61 -4.59,91.88 0.12,45.65 1.66,75.22 4.59,88.77 2.98,13.5 9.36,20.27 19.18,20.27zm-107.84 -166.76c0,18.15 -8.5,37.27 -25.55,57.31 -12.18,14.47 -35.54,37.5 -70.06,69.14l0 0 55.41 0c15.85,0 26.41,-1.55 31.7,-4.65 5.28,-3.1 10.22,-10.63 14.7,-22.57l7.93 0 -7.53 36.41 -7.63 36.64 0 0 -143.67 0 0 -3.85 0 -4.08c36.41,-37.55 61.79,-67.01 76.15,-88.43 14.24,-21.3 21.36,-40.37 21.36,-57.19 0,-13.09 -3.79,-23.72 -11.37,-31.76 -7.58,-8.1 -17.63,-12.12 -30.09,-12.12 -8.85,0 -17,2.76 -24.52,8.27 -7.47,5.51 -13.38,13.09 -17.74,22.74l-9.65 0c8.84,-23.6 19.58,-41.28 32.21,-53 12.58,-11.77 27.16,-17.63 43.64,-17.63 18.95,0 34.45,6.03 46.57,18.15 12.12,12.12 18.15,27.68 18.15,46.62z"/>
   <path class="fil0" d="M3920.04 432.3l-7.82 0c-2.03,25.19 -36.48,100.46 -42.7,113.78l-200.78 453.95c-18.53,34.45 -48.49,48.93 -73.1,48.93l-7.82 0 0 8.69 186.16 0 0 -8.54 -7.53 0c-22.44,0 -47.48,-19.83 -33.3,-54.57l44.44 -107.41 203.82 0 42.7 107.41c13.32,34.74 -11.15,54.43 -33.44,54.43l-7.67 0 0 8.69 276.63 0 0 -8.69 -7.24 0c-25.48,0 -55.3,-14.77 -74.11,-50.37l-258.24 -566.29zm-127.1 418.35l88.88 -213.37 84.97 213.37 -173.85 0z"/>
   <path class="fil0" d="M3585.02 1375.49l-11.1 0c-31.08,0 -56.98,-24.86 -56.98,-55.8l0 -32.41c-45.44,-17.3 -90.04,-37.58 -133.2,-60.83l0 93.25c0,30.93 -25.76,55.8 -56.84,55.8l-11.25 0 -0.15 8.88 269.67 0 -0.15 -8.88zm-68.08 -284.18l0 -809.94c0,-30.65 26.05,-55.35 56.98,-55.35l11.1 0 0.15 -8.88 -269.67 0 0.15 8.88 11.25 0c30.93,0 56.84,24.71 56.84,55.5l0 713.28c43.35,36.63 87.94,68.81 133.2,96.51z"/>
   <path class="fil0" d="M2666.34 333.02l0.15 8.88 11.25 0c31.08,-0.15 56.24,24.87 56.83,55.8l0 492.57c-0.74,30.79 -25.9,55.5 -56.83,55.5l-11.25 0 -0.15 8.88 270.11 0 -0.15 -8.88 -11.1 0c-31.23,0 -56.54,-24.86 -57.13,-55.8l0 -518.17c11.25,0.29 43.81,-0.59 67.49,0.29 58.31,1.48 101.09,39.52 104.64,124.47 0.74,17.91 -1.19,32.12 -3.26,42.92 -15.83,77.85 -64.38,102.13 -112.19,102.72l-27.09 0 0 8.43c23.09,4 43.51,22.5 60.09,59.8 9.77,26.64 50.38,114.72 74,152.15 353.77,561.62 1333.45,609.49 1433.84,117.88 51.6,-252.69 -44.62,-529.8 -230.84,-447.06 -33.3,14.8 -58.78,53.58 -53.1,90.69 2.66,17.36 12.76,33.59 25.4,45.53 12.62,11.91 28.11,20.27 45.64,21.45 33.6,2.26 68.11,-22.78 70.31,-57.63 1.1,-17.5 -7.06,-34.95 -22.79,-43.4 -7.22,-3.87 -15.68,-5.31 -23.8,-4.64 -9.06,0.75 -16.86,4.41 -22.68,11.58 -11.33,13.97 -8.26,34.52 6.42,44.87 12.89,9.09 30.73,2.12 37.8,-10.91 3.35,-6.16 3.95,-13.4 0.85,-19.76 -0.79,-1.6 -3.35,-0.63 -2.61,1.03 6.13,13.64 -9.71,34.24 -23.64,22.85 -4.47,-3.65 -8.51,-7.44 -10.14,-13.2 -1.75,-6.25 -0.33,-12.52 3.38,-17.76 3.9,-5.5 10.13,-11.14 16.89,-12.49 8.06,-1.61 16.35,1.6 22.75,6.44 15.62,11.81 18.25,33.42 11.84,50.98 -11.2,30.65 -48.82,46.91 -79.17,36.2 -15.2,-5.36 -27.93,-16.11 -35.82,-30.15 -7.61,-13.54 -8.76,-30.18 -7.23,-45.33 3.29,-32.64 26.65,-58.5 57.11,-69.1 34.11,-11.88 70.55,-2.15 98.45,19.47 129.7,100.61 106.01,418.77 2.18,537.27 -228.1,260.32 -675.41,232.29 -1022.54,-99.63 -73,-69.8 -162.33,-185.91 -202.74,-249.88 -40.41,-63.96 -53.13,-66.31 -90.58,-78.59 100.79,-10.06 145.35,-94.13 145.35,-168.87 0,-123.59 -103.46,-167.4 -211.21,-167.4l-304.74 0z"/>
   <path class="fil0" d="M2080.71 327.18c-171.49,73.12 -251.73,221.96 -206.92,403.4 51.64,209.08 230.09,302.59 458.87,246.08 228.78,-56.51 343.33,-222.38 291.69,-431.46 -45.74,-185.18 -191.07,-279.64 -382.64,-259.58 11.64,9.2 23.85,18.04 34.97,27.56 2.59,2.24 5.47,4.62 8.34,6.99 5.46,4.5 10.9,9 15.98,14 7.93,7.62 14.55,14.15 21.05,20.74 68.25,36.72 121.54,115.43 149.36,228.06 45.67,184.89 -11.91,320.89 -148.41,354.6 -136.34,33.68 -250.62,-59.88 -296.28,-244.77 -39.3,-159.1 -2.12,-281.97 95.89,-334.62 -13.97,-10.31 -27.99,-20.62 -41.9,-31.01z"/>
   <path class="fil0" d="M1955.73 1168.72l-11.25 0c-31.08,0 -56.83,-24.86 -56.83,-55.8l0 -239.63c-30.66,-38.8 -53.67,-86.59 -67.53,-142.71 -29.98,-121.4 -3.97,-228.2 67.9,-307.5l-201.8 0 0.15 8.88 11.1 0c30.78,0 56.98,24.4 56.98,54.76 0,76.67 0,153.34 0,230 -79.24,0 -158.48,0 -237.72,0l0 -405.47c0,-30.65 26.05,-55.35 56.98,-55.35l11.1 0 0.15 -8.88 -269.67 0 0.15 8.88 11.25 0c30.93,0 56.84,24.71 56.84,55.5l0 668.77c0,30.93 -25.76,55.8 -56.84,55.8l-11.25 0 -0.15 8.88 269.67 0 -0.15 -8.88 -11.1 0c-31.08,0 -56.98,-24.86 -56.98,-55.8 0,-37.14 0,-74.29 0,-111.43 79.24,0 158.48,0 237.72,0l0 244.76c0,30.65 -26.06,55.21 -56.98,55.21l-11.1 0 -0.15 8.88 269.67 0 -0.15 -8.88z"/>
   <path class="fil0" d="M721.26 468.07l0.17 10.23 12.79 0c34.12,0 65.33,25.6 65.33,58.85l0 638.48c0,35.65 -29.69,64.31 -65.51,64.31l-12.96 0 -0.17 10.23 310.96 0 -0.17 -10.23 -12.97 0c-35.65,0 -65.5,-28.65 -65.5,-64.31l0 -664.4 68.23 0c82.05,0 128.96,56.97 131.86,144.14 0.85,19.45 -1.53,43.5 -6.31,61.58 -35.65,128.96 -159.49,115.99 -158.81,116.68l0 9.72c146.02,95.86 335.19,-2.73 328.87,-179.28 -3.58,-111.73 -79.49,-196 -254.5,-196l-341.33 0z"/>
   <path class="fil0" d="M556.19 1021.69c-0.15,122.11 -76.67,193.3 -181.16,193.3 -106.71,0 -178.42,-78.29 -178.35,-204.84 0.07,-113.07 -0.73,-226.16 0,-339.23 0.15,-23.1 20.13,-42.33 46.77,-42.33 4.83,0 10.38,2.52 14.5,0 2.52,-1.55 2.95,-8.78 0,-8.88 -85.25,-2.96 -170.66,-2.96 -255.91,0 -2.95,0.1 -2.51,7.32 0,8.88 4.07,2.51 9.57,0 14.36,0 25.75,0 46.99,18.35 47.07,43.96 0.36,115.1 0.72,230.2 0,345.3 -0.9,142.54 108.19,235.92 286.4,235.92 170.8,0 268.42,-88.21 269.37,-237.55 0.67,-105.63 0,-266.27 0,-371.9 0,-1058.13 1684.77,-459.25 1776.49,-30.56 6.27,29.29 7.62,62.09 -4.32,90.23 -12.39,29.18 -34.95,52.96 -63.52,66.74 -57.05,27.52 -134.16,3.88 -162.71,-53.65 -16.35,-32.94 -15.89,-75.79 12.11,-102.29 11.46,-10.84 27,-18.93 43.11,-17.52 13.52,1.18 26.93,10.86 35.75,20.78 8.38,9.44 12.53,21.4 10.45,34.01 -1.93,11.61 -9.01,19.92 -16.97,28.02 -24.78,25.29 -60.24,-11.57 -51.21,-39.57 1.1,-3.41 -4.11,-4.75 -5.32,-1.45 -4.7,13.12 -1.94,27.15 5.94,38.47 16.65,23.96 53.06,33.72 76.31,13.14 26.47,-23.43 28.02,-64.31 2.83,-89.16 -12.94,-12.75 -28.98,-18.22 -46.87,-17.73 -16.03,0.45 -32.25,5.09 -45.54,14.23 -28.95,19.95 -41.13,55.85 -35.17,89.83 11.87,67.71 84.8,109.21 150.04,97.49 34.05,-6.12 63.57,-21.28 85.68,-47.32 22.15,-26.09 37.33,-64.56 38.77,-99.11 7.67,-185.91 -261.73,-375.62 -410.6,-453.64 -120.15,-62.97 -256.38,-112.51 -397.58,-146.29 -183.86,-43.98 -381.65,-53.06 -567.31,-15.25 -338.33,68.89 -493.96,270.18 -493.37,621.04 0.18,107.3 0.14,269.63 0,376.93z"/>
  </g>
 </g>
</svg>
