<svg width="746" height="265" viewBox="0 0 746 265" fill="none" xmlns="http://www.w3.org/2000/svg">
<g filter="url(#filter0_ddd_89_65)">
<path d="M584.565 242.627H582.819C577.929 242.627 573.849 238.71 573.849 233.84V228.736C566.697 226.013 559.678 222.818 552.887 219.156V233.84C552.887 238.71 548.834 242.627 543.939 242.627H542.171L542.148 244.024H584.593L584.571 242.627H584.565ZM637.293 94.0956H636.063C635.741 98.0618 630.319 109.916 629.343 112.013L597.743 183.499C594.827 188.924 590.109 191.204 586.239 191.204H585.009V192.574H614.308V191.232H613.122C609.59 191.232 605.649 188.109 607.883 182.639L614.879 165.726H646.956L653.676 182.639C655.771 188.109 651.924 191.21 648.415 191.21H647.206V192.58H690.743V191.21H689.606C685.598 191.21 680.902 188.886 677.942 183.277L637.299 94.1011L637.293 94.0956ZM617.291 159.974L631.278 126.375L644.65 159.974H617.291ZM490.59 218.946H477.035V215.923V212.877L493.844 189.54H496.067H498.29V212.977H501.761V218.946H498.29V226.756H490.59V218.946ZM490.59 212.977V197.045L479.258 212.872L479.186 212.982H490.59V212.977ZM472.589 199.63C472.589 202.487 471.253 205.499 468.569 208.656C466.651 210.936 462.975 214.558 457.542 219.545H466.263C468.758 219.545 470.421 219.301 471.253 218.813C472.084 218.324 472.86 217.137 473.564 215.257H474.812L473.625 220.993L472.422 226.762H449.809V226.157V225.514C455.541 219.6 459.533 214.963 461.795 211.585C464.034 208.229 465.154 205.228 465.154 202.576C465.154 200.512 464.556 198.843 463.364 197.578C462.172 196.302 460.592 195.67 458.629 195.67C457.237 195.67 455.951 196.102 454.77 196.973C453.595 197.844 452.664 199.037 451.976 200.557H450.457C451.849 196.84 453.54 194.056 455.53 192.208C457.509 190.356 459.804 189.429 462.399 189.429C465.382 189.429 467.821 190.378 469.728 192.286C471.635 194.194 472.583 196.646 472.583 199.63H472.589ZM435.333 227.411C431.819 227.411 428.897 225.636 426.574 222.091C424.24 218.535 423.076 214.086 423.076 208.744C423.076 203.203 424.24 198.588 426.574 194.926C428.897 191.265 431.819 189.429 435.333 189.429C438.865 189.429 441.786 191.265 444.109 194.926C446.432 198.588 447.591 203.203 447.591 208.744C447.591 214.092 446.432 218.535 444.109 222.091C441.786 225.636 438.865 227.411 435.333 227.411ZM435.333 225.891C436.913 225.891 437.939 224.826 438.405 222.696C438.865 220.56 439.092 215.906 439.076 208.717C439.092 201.272 438.865 196.452 438.405 194.25C437.934 192.053 436.913 190.949 435.333 190.949C433.787 190.949 432.783 192.053 432.318 194.25C431.857 196.457 431.613 201.278 431.597 208.717C431.613 215.906 431.857 220.565 432.318 222.696C432.789 224.82 433.792 225.891 435.333 225.891ZM418.363 199.63C418.363 202.487 417.027 205.499 414.344 208.656C412.426 210.936 408.75 214.558 403.317 219.545H412.038C414.533 219.545 416.196 219.301 417.027 218.813C417.859 218.324 418.635 217.137 419.339 215.257H420.587L419.4 220.993L418.197 226.762H395.583V226.157V225.514C401.316 219.6 405.307 214.963 407.569 211.585C409.809 208.229 410.929 205.228 410.929 202.576C410.929 200.512 410.33 198.843 409.138 197.578C407.946 196.302 406.366 195.67 404.404 195.67C403.012 195.67 401.726 196.102 400.545 196.973C399.37 197.844 398.439 199.037 397.751 200.557H396.232C397.624 196.84 399.314 194.056 401.305 192.208C403.284 190.356 405.579 189.429 408.174 189.429C411.156 189.429 413.596 190.378 415.503 192.286C417.41 194.194 418.358 196.646 418.358 199.63H418.363ZM347.811 77.5428C320.818 89.0587 308.194 112.496 315.246 141.069C323.374 173.997 351.459 188.719 387.467 179.822C423.475 170.924 441.504 144.802 433.376 111.874C426.175 82.7128 403.306 67.8353 373.153 70.9972C374.982 72.445 376.906 73.8373 378.658 75.3406C379.062 75.6956 379.517 76.0673 379.972 76.4389C380.831 77.149 381.685 77.8534 382.489 78.6411C383.736 79.8393 384.778 80.8711 385.804 81.9084C396.548 87.6886 404.936 100.087 409.31 117.821C416.495 146.938 407.436 168.356 385.954 173.664C364.499 178.967 346.508 164.234 339.324 135.117C333.136 110.06 338.991 90.7118 354.414 82.4244C352.213 80.799 350.007 79.1792 347.817 77.5428H347.811ZM439.979 78.4637L440.001 79.8616H441.77C446.66 79.8394 450.624 83.7778 450.718 88.6483V166.214C450.601 171.062 446.643 174.957 441.77 174.957H440.001L439.979 176.355H482.49L482.468 174.957H480.722C475.804 174.957 471.824 171.04 471.729 166.17V84.5711C473.498 84.6155 478.626 84.4768 482.352 84.6155C491.527 84.8484 498.263 90.8394 498.823 104.219C498.939 107.037 498.634 109.278 498.312 110.976C495.818 123.235 488.178 127.057 480.655 127.151H476.392V128.482C480.029 129.109 483.239 132.027 485.85 137.896C487.385 142.09 493.778 155.963 497.498 161.854C553.175 250.293 707.363 257.837 723.163 180.415C731.285 140.625 716.139 96.9856 686.834 110.01C681.595 112.34 677.581 118.448 678.474 124.294C678.89 127.029 680.481 129.586 682.471 131.467C684.456 133.342 686.895 134.656 689.656 134.845C694.945 135.2 700.372 131.256 700.722 125.77C700.894 123.013 699.613 120.267 697.135 118.936C695.998 118.326 694.668 118.098 693.393 118.204C691.968 118.32 690.737 118.897 689.822 120.029C688.037 122.231 688.525 125.465 690.831 127.096C692.86 128.527 695.671 127.428 696.78 125.376C697.307 124.405 697.401 123.268 696.913 122.264C696.785 122.014 696.386 122.164 696.503 122.425C697.467 124.572 694.973 127.817 692.783 126.025C692.079 125.448 691.441 124.855 691.186 123.945C690.909 122.963 691.136 121.976 691.718 121.149C692.334 120.284 693.315 119.396 694.374 119.18C695.643 118.925 696.946 119.435 697.955 120.195C700.417 122.053 700.827 125.459 699.818 128.222C698.055 133.048 692.134 135.611 687.355 133.924C684.96 133.081 682.959 131.389 681.717 129.176C680.52 127.046 680.336 124.422 680.58 122.037C681.096 116.894 684.777 112.823 689.567 111.153C694.939 109.284 700.672 110.815 705.062 114.221C725.475 130.063 721.75 180.165 705.406 198.826C669.509 239.82 599.107 235.404 544.477 183.139C532.99 172.144 518.93 153.861 512.566 143.787C506.207 133.713 504.206 133.347 498.312 131.411C514.174 129.825 521.187 116.589 521.187 104.818C521.187 85.3588 504.904 78.4581 487.945 78.4581H439.985L439.979 78.4637ZM328.141 210.065H326.373C321.483 210.065 317.431 206.148 317.431 201.278V163.541C312.607 157.428 308.982 149.906 306.803 141.069C302.085 121.953 306.176 105.134 317.486 92.6477H285.725L285.747 94.0456H287.493C292.339 94.0456 296.463 97.8898 296.463 102.672C296.463 114.748 296.463 126.818 296.463 138.894C283.99 138.894 271.521 138.894 259.047 138.894V75.041C259.047 70.215 263.144 66.3265 268.017 66.3265H269.764L269.786 64.9286H227.342L227.364 66.3265H229.132C234 66.3265 238.075 70.215 238.075 75.0688V180.382C238.075 185.252 234.022 189.168 229.132 189.168H227.364L227.342 190.566H269.786L269.764 189.168H268.017C263.128 189.168 259.047 185.252 259.047 180.382C259.047 174.535 259.047 168.683 259.047 162.836C271.516 162.836 283.99 162.836 296.463 162.836V201.378C296.463 206.204 292.361 210.07 287.493 210.07H285.747L285.725 211.468H328.169L328.147 210.07L328.141 210.065ZM133.854 99.7259L133.882 101.335H135.894C141.266 101.335 146.178 105.367 146.178 110.604V211.146C146.178 216.76 141.505 221.275 135.867 221.275H133.826L133.799 222.89H182.741L182.713 221.275H180.673C175.062 221.275 170.361 216.766 170.361 211.146V106.516H181.1C194.011 106.516 201.396 115.485 201.851 129.215C201.984 132.277 201.607 136.065 200.858 138.911C195.248 159.219 175.755 157.178 175.866 157.283V158.814C198.846 173.914 228.622 158.382 227.624 130.585C227.059 112.989 215.112 99.7204 187.569 99.7204H133.849L133.854 99.7259ZM107.875 186.911C107.853 206.137 95.8117 217.354 79.3628 217.354C62.5702 217.354 51.2828 205.022 51.2939 185.097C51.305 167.29 51.1774 149.484 51.2939 131.678C51.316 128.039 54.4595 125.01 58.6562 125.01C59.4157 125.01 60.2917 125.409 60.9403 125.01C61.3395 124.766 61.406 123.629 60.9403 123.612C47.524 123.146 34.08 123.146 20.6636 123.612C20.1979 123.629 20.27 124.766 20.6636 125.01C21.3012 125.404 22.1716 125.01 22.9255 125.01C26.9782 125.01 30.3211 127.9 30.3322 131.933C30.3877 150.061 30.4487 168.184 30.3322 186.312C30.1881 208.756 47.3577 223.467 75.4044 223.467C102.287 223.467 117.649 209.576 117.799 186.057C117.904 169.426 117.799 144.125 117.799 127.49C117.799 -39.1418 382.954 55.1655 397.391 122.675C398.378 127.29 398.588 132.454 396.709 136.886C394.757 141.479 391.209 145.224 386.713 147.398C377.732 151.731 365.596 148.009 361.106 138.95C358.533 133.763 358.605 127.012 363.013 122.841C364.815 121.132 367.265 119.857 369.799 120.084C371.927 120.273 374.04 121.793 375.426 123.357C376.745 124.844 377.399 126.73 377.072 128.71C376.767 130.54 375.653 131.844 374.4 133.12C370.503 137.103 364.92 131.295 366.339 126.885C366.511 126.347 365.69 126.136 365.502 126.657C364.765 128.721 365.197 130.934 366.433 132.715C369.056 136.487 374.783 138.024 378.442 134.784C382.605 131.095 382.854 124.655 378.885 120.744C376.85 118.736 374.322 117.876 371.506 117.954C368.984 118.026 366.433 118.758 364.338 120.195C359.781 123.335 357.862 128.993 358.799 134.34C360.668 145.002 372.144 151.537 382.411 149.695C387.766 148.73 392.418 146.344 395.894 142.245C399.381 138.135 401.77 132.077 401.998 126.635C403.206 97.3573 360.806 67.4859 337.378 55.1989C318.467 45.2805 297.029 37.4812 274.803 32.1615C245.864 25.2331 214.735 23.8074 185.518 29.7595C132.269 40.6098 107.775 72.3063 107.87 127.562C107.897 144.458 107.892 170.02 107.87 186.922L107.875 186.911ZM573.854 197.872V70.3259C573.854 65.4999 577.957 61.6114 582.824 61.6114H584.571L584.593 60.2135H542.148L542.171 61.6114H543.939C548.807 61.6114 552.887 65.5055 552.887 70.3537V182.678C559.712 188.447 566.73 193.517 573.849 197.878L573.854 197.872Z" fill="#FFAD0E"/>
</g>
<defs>
<filter id="filter0_ddd_89_65" x="-9.65918" y="0.0244141" width="765" height="278" filterUnits="userSpaceOnUse" color-interpolation-filters="sRGB">
<feFlood flood-opacity="0" result="BackgroundImageFix"/>
<feColorMatrix in="SourceAlpha" type="matrix" values="0 0 0 0 0 0 0 0 0 0 0 0 0 0 0 0 0 0 127 0" result="hardAlpha"/>
<feOffset/>
<feGaussianBlur stdDeviation="4"/>
<feColorMatrix type="matrix" values="0 0 0 0 0.960784 0 0 0 0 0.509804 0 0 0 0 0.12549 0 0 0 1 0"/>
<feBlend mode="normal" in2="BackgroundImageFix" result="effect1_dropShadow_89_65"/>
<feColorMatrix in="SourceAlpha" type="matrix" values="0 0 0 0 0 0 0 0 0 0 0 0 0 0 0 0 0 0 127 0" result="hardAlpha"/>
<feOffset dy="4"/>
<feGaussianBlur stdDeviation="15"/>
<feComposite in2="hardAlpha" operator="out"/>
<feColorMatrix type="matrix" values="0 0 0 0 1 0 0 0 0 0.678431 0 0 0 0 0.054902 0 0 0 0.8 0"/>
<feBlend mode="normal" in2="effect1_dropShadow_89_65" result="effect2_dropShadow_89_65"/>
<feColorMatrix in="SourceAlpha" type="matrix" values="0 0 0 0 0 0 0 0 0 0 0 0 0 0 0 0 0 0 127 0" result="hardAlpha"/>
<feOffset dy="4"/>
<feGaussianBlur stdDeviation="11.5"/>
<feComposite in2="hardAlpha" operator="out"/>
<feColorMatrix type="matrix" values="0 0 0 0 0 0 0 0 0 0 0 0 0 0 0 0 0 0 1 0"/>
<feBlend mode="normal" in2="effect2_dropShadow_89_65" result="effect3_dropShadow_89_65"/>
<feBlend mode="normal" in="SourceGraphic" in2="effect3_dropShadow_89_65" result="shape"/>
</filter>
</defs>
</svg>
